<?xml version="1.0" encoding="utf-8"?>
<!-- Generator: Adobe Illustrator 24.0.2, SVG Export Plug-In . SVG Version: 6.00 Build 0)  -->
<svg version="1.1" id="Layer_1" xmlns="http://www.w3.org/2000/svg" xmlns:xlink="http://www.w3.org/1999/xlink" x="0px" y="0px"
	 viewBox="0 0 60.6 60.6" style="enable-background:new 0 0 60.6 60.6;" xml:space="preserve">
<style type="text/css">
	.st0{fill:#B58F18;}
</style>
<title>instagram3</title>
<path class="st0" d="M42.5,0H18.1C8.1,0,0,8.1,0,18.1v24.5c0,10,8.1,18,18.1,18.1h24.5c10,0,18-8.1,18.1-18.1V18.1
	C60.6,8.1,52.5,0,42.5,0z M54.5,42.5c0,6.6-5.4,12-12,12H18.1c-6.6,0-12-5.4-12-12V18.1c0-6.6,5.4-12,12-12h24.5c6.6,0,12,5.4,12,12
	L54.5,42.5L54.5,42.5L54.5,42.5z"/>
<path class="st0" d="M30.3,14.6c-8.7,0-15.7,7-15.7,15.7S21.7,46,30.3,46S46,39,46,30.3C46,21.6,39,14.6,30.3,14.6z M30.3,39.9
	c-5.3,0-9.6-4.3-9.6-9.6s4.3-9.6,9.6-9.6s9.6,4.3,9.6,9.6S35.6,39.9,30.3,39.9L30.3,39.9z"/>
<circle class="st0" cx="46" cy="14.8" r="3.8"/>
</svg>
