<svg id="Layer_1" data-name="Layer 1" xmlns="http://www.w3.org/2000/svg" viewBox="0 0 131.13 131.15"><defs><style>.cls-1{fill:#b48f2f;}.cls-2{fill:#fff;}</style></defs><title>Artboard 4</title><polygon class="cls-1" points="99.38 121.91 91.85 118.6 89.91 126.6 83.01 122.12 79.82 129.7 73.72 124.18 69.35 131.15 64.22 124.72 58.79 130.9 54.76 123.73 48.41 128.96 45.58 121.23 38.47 125.38 36.92 117.3 29.24 120.25 29 112.02 20.95 113.7 22.03 105.55 13.81 105.91 16.19 98.03 8.02 97.08 11.63 89.69 3.72 87.43 8.47 80.71 1.02 77.22 6.79 71.35 0 66.7 6.63 61.84 0.68 56.16 8 52.42 3.03 45.86 10.87 43.35 7.01 36.08 15.15 34.85 12.51 27.06 20.74 27.15 19.38 19.04 27.49 20.45 27.45 12.22 35.23 14.92 36.52 6.79 43.76 10.7 46.33 2.88 52.85 7.9 56.64 0.6 62.27 6.6 67.19 0 71.78 6.82 77.69 1.1 81.14 8.57 87.89 3.87 90.09 11.8 97.5 8.24 98.4 16.42 106.3 14.1 105.87 22.31 114.03 21.29 112.3 29.33 120.52 29.63 117.51 37.28 125.58 38.9 121.39 45.98 129.09 48.86 123.81 55.17 130.96 59.26 124.74 64.64 131.13 69.82 124.13 74.14 129.61 80.27 122 83.41 126.43 90.35 118.42 92.22 121.68 99.78 113.47 100.35 115.47 108.33 107.28 107.57 107.97 115.77 100.01 113.71 99.38 121.91"/><path class="cls-2" d="M37.78,46.28l.24.41a7.15,7.15,0,0,0,3.92,3.24c.75.22,2.1.28,2.52-.63s-.54-1.28-1.17-1.62L41.86,47c-2.75-1.39-4.48-3.8-3-7,2.25-4.78,8.08-6.11,12.67-4.77A11.69,11.69,0,0,1,57.42,39L52.9,43.5a7.12,7.12,0,0,0-3.73-2.82c-.67-.2-1.75-.24-2.15.59s.55,1.13,1.07,1.44l1.57.88c2.92,1.64,4.48,4,2.87,7.4-2.28,4.8-8,5.84-12.56,4.5a17.69,17.69,0,0,1-7.24-4.22Z"/><path class="cls-2" d="M60.05,38.09l7.39,2.17L64.24,47l4.7,1.37,3.2-6.78,7.39,2.17L70,63.92l-7.39-2.16,3.3-7-4.71-1.37-3.29,7-7.39-2.16Z"/><path class="cls-2" d="M81.91,44.49l7.67,2.25L80.07,66.87,72.4,64.62Z"/><path class="cls-2" d="M90.56,47l16.12,4.72-3.07,6.54-4.14-1.42L93,70.64l-7.67-2.25L91.8,54.62l-4.31-1Z"/><path class="cls-2" d="M31.34,58.67l7.39,2.17-3.21,6.78L40.23,69l3.2-6.78,7.39,2.17L41.31,84.5l-7.39-2.16,3.29-7L32.51,74l-3.29,7L21.83,78.8Z"/><path class="cls-2" d="M70.94,81.79c-3,6.46-10.11,8.8-16.55,6.91S44.55,81.41,47.6,75s10.2-8.89,16.61-7S74,75.46,70.94,81.79ZM55.29,77.33c-1.09,2.29-.21,4.34,2.12,5a4.84,4.84,0,0,0,5.78-2.71c1-2.14.33-4.37-2.1-5.08A4.9,4.9,0,0,0,55.29,77.33Z"/><path class="cls-2" d="M75.87,71.71,92,76.43,88.92,83l-4.14-1.43L78.26,95.32l-7.67-2.24,6.52-13.77-4.31-1Z"/><path class="cls-2" d="M93.65,96.43c-1,2.1-3.71,2.68-5.75,2.08S84.3,96.09,85.31,94s3.72-2.76,5.77-2.17S94.64,94.29,93.65,96.43Zm-5.64-7L94.5,75.68l7.38,2.16L95.4,91.59Z"/></svg>