<svg id="Layer_1" data-name="Layer 1" xmlns="http://www.w3.org/2000/svg" viewBox="0 0 188.77 56.61"><defs><style>.cls-1{fill:#b48f2f;}</style></defs><title>Artboard 2</title><path class="cls-1" d="M75.13,15.1a14,14,0,0,1,9.24,3.19.48.48,0,0,1,.1.66L82.26,22a.47.47,0,0,1-.68.1,13.65,13.65,0,0,0-1.91-1.23,10.87,10.87,0,0,0-4.54-1.23c-1.5,0-3.9.49-3.9,2.85,0,1.9,1.68,2.61,6.85,3.88,3.37.88,7.29,2.5,7.29,7.65,0,4.75-3.94,7.74-9.38,7.74a15.78,15.78,0,0,1-10.63-4.12.48.48,0,0,1,0-.64l2.49-2.92a.47.47,0,0,1,.69,0A11.36,11.36,0,0,0,76,37.19c4.47,0,4.29-2.7,4.29-3.1,0-.86-.62-2.06-2.83-2.68s-7.75-1.66-9.83-4.08a6.59,6.59,0,0,1-1.45-4.44C66.16,20,68,15.1,75.13,15.1Z"/><path class="cls-1" d="M98.23,21.28a8,8,0,0,0-6.15,2.94v-2a.48.48,0,0,0-.48-.48H87.5a.49.49,0,0,0-.48.48v24.6a.49.49,0,0,0,.48.48h4.12a.48.48,0,0,0,.47-.48V39.12a8,8,0,0,0,6.35,2.68c3.45,0,9-2.77,9-10.17S102.22,21.28,98.23,21.28ZM97.17,37.43C94.38,37.43,92,35,92,31.54c0-2.11,1.32-5.8,5.1-5.8s5.21,3,5.21,5.8S100.8,37.43,97.17,37.43Z"/><path class="cls-1" d="M119.28,21.28a10.37,10.37,0,0,0-10.45,10.3,10.49,10.49,0,1,0,10.45-10.3Zm0,16.15a5.69,5.69,0,0,1-5.51-5.86,5.48,5.48,0,0,1,5.51-5.83,5.61,5.61,0,0,1,5.42,5.83C124.74,35.54,122,37.43,119.32,37.43Z"/><path class="cls-1" d="M142.71,25.63v-3.5a.48.48,0,0,0-.48-.48h-4.67V16.92a.49.49,0,0,0-.48-.48h-4a.49.49,0,0,0-.48.48v4.73h-2a.49.49,0,0,0-.48.48v3.5a.48.48,0,0,0,.48.47h2V36c0,2.23,1,5.75,5.44,5.75a10.93,10.93,0,0,0,4.43-1,.47.47,0,0,0,.27-.43V36.87a.38.38,0,0,0-.59-.32,4.06,4.06,0,0,1-2.34.65c-2.11,0-2.22-1.43-2.22-2.45V26.1h4.67A.47.47,0,0,0,142.71,25.63Z"/><circle class="cls-1" cx="147.29" cy="16.14" r="3.11"/><rect class="cls-1" x="144.79" y="21.65" width="4.99" height="19.75" rx="1.42"/><path class="cls-1" d="M154.23,26.1h-1.94a.48.48,0,0,1-.48-.47v-3.5a.49.49,0,0,1,.48-.48h1.94V20.39c0-.85.15-6.17,6.12-6.17,3,0,3.92.66,3.92.66v3.59c0,.36-.13.66-.51.51a8,8,0,0,0-2.41-.45,2,2,0,0,0-2.15,2.14v1h7.32A.5.5,0,0,1,167,22l5.12,13.24,4.6-13.2a.47.47,0,0,1,.45-.32h4.5a.3.3,0,0,1,.28.41c-1,2.73-7,18.21-7.81,20.17-.84,2.15-2.28,5.09-6.4,5.09a8.33,8.33,0,0,1-4.57-1.22.48.48,0,0,1-.17-.6l1.47-3.15a.24.24,0,0,1,.34-.11,5,5,0,0,0,2.49.76c1.64,0,2.37-1.93,2.37-1.93l-6.28-15h-4.13V41a.48.48,0,0,1-.48.48H154.7a.49.49,0,0,1-.48-.48Z"/><path class="cls-1" d="M184.38,23h1.5a1.32,1.32,0,0,1,1,.33,1.05,1.05,0,0,1,.28.75h0a1,1,0,0,1-.7,1l.8,1.17h-.84l-.7-1h-.57v1h-.72Zm1.45,1.59c.35,0,.55-.19.55-.46h0c0-.31-.21-.47-.56-.47h-.72v.94Z"/><path class="cls-1" d="M185.68,27.82a3.09,3.09,0,1,1,3.09-3.09A3.08,3.08,0,0,1,185.68,27.82Zm0-5.84a2.76,2.76,0,1,0,2.75,2.75A2.76,2.76,0,0,0,185.68,22Z"/><path class="cls-1" d="M28.3,0A28.31,28.31,0,1,0,56.61,28.3,28.3,28.3,0,0,0,28.3,0Zm13,40.87a1.85,1.85,0,0,1-2.55.63c-11.15-6.7-24.36-2.83-24.49-2.79a1.86,1.86,0,1,1-1.08-3.55c.6-.19,14.89-4.42,27.49,3.16A1.85,1.85,0,0,1,41.26,40.87ZM44.78,33a2.2,2.2,0,0,1-1.91,1.1,2.15,2.15,0,0,1-1.09-.29,37.24,37.24,0,0,0-28.25-3.31,2.2,2.2,0,0,1-1.43-4.16A41.32,41.32,0,0,1,44,30,2.21,2.21,0,0,1,44.78,33Zm1.57-7.56a2.7,2.7,0,0,1-1.26-.31C29,16.68,12.38,21.76,12.21,21.81a2.7,2.7,0,1,1-1.63-5.15c.76-.25,18.91-5.8,37,3.71a2.71,2.71,0,0,1-1.26,5.1Z"/></svg>